<svg width="125" height="372" viewBox="0 0 125 372" xmlns="http://www.w3.org/2000/svg">
<path d="M35.5 74.5L37.1625 30.3954L91.764 27.1518L99.3325 75.266L92.8452 72.5629L77.7082 74.1848H63.6523H48.5153L35.5 74.5Z" fill="#333432"/>
<path d="M35.5 74.5L37.1625 30.3954L91.764 27.1518L99.3325 75.266L92.8452 72.5629M35.5 74.5L48.5153 74.1848M35.5 74.5L44 66L46 42.8152M48.5153 74.1848L52.2995 32.5579M48.5153 74.1848H63.6523M63.6523 74.1848V32.5579M63.6523 74.1848H77.7082M77.7082 74.1848L76.0864 32.5579M77.7082 74.1848L92.8452 72.5629M92.8452 72.5629L82.5 70.5V32.5579" stroke="black"/>
<path d="M54.462 63.3726V56.8853L55.0026 54.1823L73.3833 54.7229L73.9239 59.0477V63.3726H76.0864C76.4468 63.9132 77.2757 64.9944 77.7082 64.9944C78.2488 64.9944 77.7082 67.1569 77.7082 67.6975C77.7082 68.13 69.4189 85.1772 65.2742 93.6467L63.6524 94.1873L55.5432 81.2127L50.6777 68.2381V65.535C50.6777 64.2376 53.561 63.5528 54.462 63.3726Z" fill="#8F8175" stroke="black"/>
<circle cx="64.7336" cy="30.936" r="28.1523" fill="#8E847B" stroke="black"/>
<path d="M88.5 27H91L89.5 12L84 7V19L85 27H88.5Z" fill="#383935" stroke="black"/>
<path d="M42 26.5H39.5L40.5 13L46 8V20L45.5 26.5H42Z" fill="#383935" stroke="black"/>
<path d="M40.4894 16.7139L36.816 38.3868C35.714 29.5707 37.5507 11.7181 37.5507 10.8365C37.5507 9.73445 41.224 3.12239 47.4688 1.65304C53.7135 0.183695 62.1623 1.65304 63.6316 1.65304C65.1009 1.65304 69.1417 2.75505 70.2437 3.12239C71.3457 3.48973 70.9783 24.7953 70.2437 26.632C69.509 28.4687 60.3256 27.3666 59.9582 26.632C59.6644 26.0442 58.6113 16.5914 58.1215 11.9385C58.3664 16.469 58.7093 25.7504 58.1215 26.632C57.3869 27.734 50.4075 26.9993 47.4688 26.632C44.5301 26.2646 48.5708 8.63245 45.6321 11.9385C43.2811 14.5833 41.3465 16.5914 40.4894 16.7139Z" fill="#383935" stroke="black"/>
<path d="M89.7127 16.7139L93.7142 38.6725C94.8162 29.8564 91.5493 12.8201 91.5493 11.9385C91.5493 10.8365 89.3061 3.4081 83.0614 1.93875C76.8167 0.469401 68.3679 1.93875 66.8986 1.93875C65.4292 1.93875 65.4684 1.57141 64.3664 1.93875C63.2644 2.30609 58.8563 24.4279 59.591 26.2646C60.3257 28.1013 70.2046 27.6523 70.572 26.9177C70.8658 26.3299 71.9189 16.8771 72.4086 12.2242C72.1638 16.7547 71.8209 26.0361 72.4086 26.9177C73.1433 28.0197 80.1227 27.285 83.0614 26.9177C86.0001 26.5503 81.9594 8.91816 84.8981 12.2242C87.2491 14.869 88.8555 16.5914 89.7127 16.7139Z" fill="#383935" stroke="black"/>
<rect x="59.5908" y="2.02039" width="5.14272" height="22.0402" fill="#383935"/>
<path d="M107.5 80L108 83L109 87L111 93.5V98L112 104L113.5 108.5L115 113L115.5 115.5L116.5 117L117 120L119 124.5L118 126L109 129.5L100.5 132.5C100.515 132.32 100.53 132.132 100.546 131.937C100.373 132.745 100.186 133.314 100 133.5C99.2 134.3 98.3333 139.5 98 142L95.5 150L96.5 168.5L97.5 179L23 178V167.5L24 162.5L26.5 145.5L27 142L24.6562 129.5L23 130L15.5 126.5L1 119L3.5 114L4 110.5L6.5 105.5L8.5 103L11.5 98L12.5 93L14.5 89L15.5 86L16.5 81.5L24 77L104.5 78L107.5 80Z" fill="#8C8D8E"/>
<path d="M32.5 100L24 114V126L24.6562 129.5M24.6562 129.5L27 142L26.5 145.5L24 162.5L23 167.5V178L97.5 179L96.5 168.5L95.5 150L98 142C98.3333 139.5 99.2 134.3 100 133.5C101 132.5 102 120.5 101 119.5C100.2 118.7 96 107.833 94 102.5C96.1667 108.167 100.6 119.6 101 120C101.4 120.4 100.833 128.5 100.5 132.5L109 129.5L118 126L119 124.5L117 120L116.5 117L115.5 115.5L115 113L113.5 108.5L112 104L111 98V93.5L109 87L108 83L107.5 80L104.5 78L24 77L16.5 81.5L15.5 86L14.5 89L12.5 93L11.5 98L8.5 103L6.5 105.5L4 110.5L3.5 114L1 119L15.5 126.5L23 130L24.6562 129.5Z" stroke="black" stroke-width="0.5"/>
<path d="M91 110.5L77 110V113L80.5 114H94L93.5 111.5L91 110.5Z" fill="#818082" stroke="black"/>
<path d="M24 114.5L19 100" stroke="black" stroke-width="0.5"/>
<path d="M27.5 108.5C25.5 102.5 27 98.6667 28 97.5" stroke="black" stroke-width="0.5"/>
<path d="M96.5 108.5L98 99" stroke="black" stroke-width="0.5"/>
<path d="M105 106L100.5 118L106.5 116" stroke="black" stroke-width="0.5"/>
<path d="M32 124L25 130.5L26.5 138L27 142L26 149L25 152.5H28L37 147.5L39 146L42.5 145L60 172L78 157.625L95.5 169V149.5L98 142L99.5 134L97.5 131.5L94 128.5L90 125L85.5 122.5L75 125.5L67.5 131.5L62 133.5L52 129.5L37.5 121L32 124Z" fill="#646568"/>
<path d="M60.2208 102.5C60.0542 102 59.6209 101 59.2209 101C58.8209 101 59.0542 97.6667 59.2209 96H69.2208C69.6208 96 71.0542 97.6667 71.7208 98.5C71.8875 98.5 72.1208 98.7 71.7208 99.5C71.3208 100.3 69.8875 101.833 69.2208 102.5H60.2208Z" fill="#898C8C"/>
<path d="M59.2209 96C59.2209 96 59.2209 96 59.2209 96ZM59.2209 96C59.0542 97.6667 58.8209 101 59.2209 101C59.6209 101 60.0542 102 60.2208 102.5H69.2208C69.8875 101.833 71.3208 100.3 71.7208 99.5C72.1208 98.7 71.8875 98.5 71.7208 98.5C71.0542 97.6667 69.6208 96 69.2208 96C68.8208 96 62.3875 96 59.2209 96Z" stroke="black"/>
<path d="M61 105.5V103H68.5L70 112.5L71 119L69.5 126L68 138L62 161.5L56.5 134.5V129L56 124.5V120.5L56.5 117.5C56.6667 116.5 57.1 114.1 57.5 112.5C57.9 110.9 60 107.167 61 105.5Z" fill="#385369"/>
<path d="M62 161.5L56.5 134.5V129L56 124.5V120.5L56.5 117.5C56.6667 116.5 57.1 114.1 57.5 112.5C57.9 110.9 60 107.167 61 105.5V103H68.5L70 112.5L71 119L69.5 126L68 138L62 161.5ZM62 161.5L66.5 167.5" stroke="black"/>
<path d="M62 117.5C62.4 116.3 63.8334 107.667 64.5 103.5H66C66.3333 107.667 67 116.3 67 117.5C67 118.7 63.6667 125.333 62 128.5C61.8334 125.333 61.6 118.7 62 117.5Z" fill="#1A2C3D" stroke="black"/>
<path d="M76 61L74 60V63.5L75.5 64.5V66V68.5L74 73L71.5 78.5L68.5 84.5L64.5 91L63 93V96H69H78.5L84.5 95L86 94L90 90L94 86C94.8333 84.8333 96.7 82.2 97.5 81C98.3 79.8 104.5 79.5 107.5 79.5L108 78.5C107.5 78 106.3 77 105.5 77C104.7 77 91.8333 70 85.5 66.5L76 61Z" fill="#182C3B" stroke="black"/>
<path d="M97.5 81L63.5 95.5H63V93L63.5 92L101.5 75L103 76L105.5 77L107.5 78L108 78.5L107.5 79.5H105C103.667 79.6667 100.9 80 100.5 80C100.1 80 98.6667 80.3333 98 80.5L97.5 81Z" fill="#41545E" stroke="black" stroke-width="0.5"/>
<path d="M96.5 81.5L63.5 95.5V96H78.5L85 94.5L91 89L94.5 85.5C95.1667 84.5 96.6 82.4 97 82C97.4 81.6 96.8333 81.5 96.5 81.5Z" fill="#3F576A" stroke="black" stroke-width="0.5"/>
<path d="M52 61L54.5 60V63.5V64L52.5 64.5V66V68.5L54 73L56.5 78.5L59.5 84.5L63.5 91L65 93V96H59H49.5L43.5 95L42 94L38 90L34 86C33.1667 84.8333 31.3 82.2 30.5 81C29.7 79.8 23.5 79.5 20.5 79.5L20 78.5C20.5 78 21.7 77 22.5 77C23.3 77 36.1667 70 42.5 66.5L52 61Z" fill="#182C3B" stroke="black"/>
<path d="M30.5 81L64.5 95.5H65V93L64.5 92L26.5 75L25 76L22.5 77L20.5 78L20 78.5L20.5 79.5H23C24.3333 79.6667 27.1 80 27.5 80C27.9 80 29.3333 80.3333 30 80.5L30.5 81Z" fill="#41545E" stroke="black" stroke-width="0.5"/>
<path d="M31.5 81.5L64.5 95.5V96H49.5L43 94.5L37 89L33.5 85.5C32.8333 84.5 31.4 82.4 31 82C30.6 81.6 31.1667 81.5 31.5 81.5Z" fill="#3F576A" stroke="black" stroke-width="0.5"/>
<rect x="60.25" y="148.75" width="4.5" height="19.5" fill="#71655B" stroke="black" stroke-width="0.5"/>
<path d="M72.5 145C72.1 144.6 67 147 64.5 148.5V168L72.5 164L84.5 162L89 144H78L72.5 145Z" fill="#847566" stroke="black" stroke-width="0.5"/>
<path d="M52.5 144.5C52.9 144.1 58 147.5 60.5 149V168L52.5 163.5L40.5 161.5L36 143.5H47L52.5 144.5Z" fill="#847566" stroke="black" stroke-width="0.5"/>
<path d="M62.5 147.5V148.5L64.5 149L68 147.5L79 144L88.5 143.5L86 141H78.5L71.5 143C70.7 143 66.1667 146 64 147.5H62.5Z" fill="#79787B" stroke="black" stroke-width="0.5"/>
<path d="M62 147.5V148.5L60 149L56.5 147.5L45.5 144L36 143.5L38.5 141H46L53 143C53.8 143 58.3333 146 60.5 147.5H62Z" fill="#79787B" stroke="black" stroke-width="0.5"/>
<rect x="21.6607" y="162.13" width="11.9929" height="29.5426" rx="5.99647" transform="rotate(-102.351 21.6607 162.13)" fill="#8D7E70" stroke="black"/>
<path d="M6 128.5L8 123L23 130C22.8333 132.833 22.6 138.6 23 139C23.4 139.4 21.1667 144.334 20 146.751C21.8752 147.709 23.6951 148.729 25 149.5V161L19.5 160.5H8L2 159.5C1.66667 159 1 157.6 1 156C1 154.4 2.66667 151 3.5 149.5L4.5 140.5L6 128.5Z" fill="#8D7E70"/>
<path d="M12 144C10.4 144.8 7 146.667 5.5 147.5L12 144ZM12 144C13.0306 143.485 16.6059 145.016 20 146.751M20 146.751C21.8752 147.709 23.6951 148.729 25 149.5V161L19.5 160.5H8L2 159.5C1.66667 159 1 157.6 1 156C1 154.4 2.66667 151 3.5 149.5L4.5 140.5L6 128.5L8 123L23 130C22.8333 132.833 22.6 138.6 23 139C23.4 139.4 21.1667 144.334 20 146.751Z" stroke="black"/>
<rect x="19.5466" y="160.169" width="11.2374" height="10.5707" rx="5.28537" transform="rotate(-87.4342 19.5466 160.169)" fill="#8D7E70"/>
<rect x="-0.38148" y="-0.595376" width="11.9929" height="29.5426" rx="5.99647" transform="matrix(0.213896 -0.976856 -0.976856 -0.213896 100.954 165.63)" fill="#8D7E70" stroke="black"/>
<path d="M117.115 132.5L115 127.5L101 132.5C101.167 135.333 100.515 142.6 100.115 143C99.7147 143.4 101.948 148.334 103.115 150.751C101.24 151.709 99.4196 152.729 98.1147 153.5V165L103.615 164.5H115.115L121.115 163.5C121.448 163 122.115 161.6 122.115 160C122.115 158.4 120.448 155 119.615 153.5L118.615 144.5L117.115 132.5Z" fill="#8D7E70"/>
<path d="M111.115 148C112.715 148.8 116.115 150.667 117.615 151.5L111.115 148ZM111.115 148C110.084 147.485 106.509 149.016 103.115 150.751M103.115 150.751C101.24 151.709 99.4196 152.729 98.1147 153.5V165L103.615 164.5H115.115L121.115 163.5C121.448 163 122.115 161.6 122.115 160C122.115 158.4 120.448 155 119.615 153.5L118.615 144.5L117.115 132.5L115 127.5L101 132.5C101.167 135.333 100.515 142.6 100.115 143C99.7147 143.4 101.948 148.334 103.115 150.751Z" stroke="black"/>
<rect width="11.2374" height="10.5707" rx="5.28537" transform="matrix(-0.0447673 -0.998997 -0.998997 0.0447673 103.568 164.169)" fill="#8D7E70"/>
<path d="M39.7037 240C38.9037 240 34.037 238 31.7037 237L23.7037 230L37.2037 224.5L71.2037 224V230V237V241.5L68.7037 247L67.2037 250.5L64.2037 256.5L60.7037 262.5L53.7037 275.5L46.7037 291L36.2037 312L34.2037 315.5L31.7037 316C31.3037 316.8 26.2037 316.333 23.7037 316L20.7037 313.5C18.7037 313.5 18.8704 309.833 19.2037 308L23.2037 294L28.2037 275.5L33.7037 256.5L38.7037 243.5L40.7037 239.5L41.757 238.271C40.7895 239.29 40.0052 240 39.7037 240Z" fill="#796B60"/>
<path d="M31.7037 237C34.037 238 38.9037 240 39.7037 240C40.5037 240 44.7037 235 46.7037 232.5L40.7037 239.5L38.7037 243.5L33.7037 256.5L28.2037 275.5L23.2037 294L19.2037 308C18.8704 309.833 18.7037 313.5 20.7037 313.5L23.7037 316C26.2037 316.333 31.3037 316.8 31.7037 316L34.2037 315.5L36.2037 312L46.7037 291L53.7037 275.5L60.7037 262.5L64.2037 256.5L67.2037 250.5L68.7037 247L71.2037 241.5V237V230V224L37.2037 224.5L23.7037 230L31.7037 237Z" stroke="black" stroke-width="0.5"/>
<path d="M103 238L98.5 246.5L97 249.5C94.8333 254.833 90.3 265.8 89.5 267C88.7 268.2 85.8333 273.167 84.5 275.5L81 282L75 291L69.5 299L64 305.5L58.5 314L56 319L53.5 321.5H50L46.5 320.5L43 316.5L42 314.5V312.5L44 307L46 301.5L47 297.5L49 292.5L52 285.5L54.5 277L56.5 271.5L58.5 267.5L61.5 260.5L64 255.5L66.5 250.5L68.5 246.5L69.5 244L70 241.5V239.5V233V227L87 224L103 228L104.286 234.429L104.5 234V235.5L104.286 234.429L103.5 236L103 238Z" fill="#7B6E60"/>
<path d="M103 238L98.5 246.5L97 249.5C94.8333 254.833 90.3 265.8 89.5 267C88.7 268.2 85.8333 273.167 84.5 275.5L81 282L75 291L69.5 299L64 305.5L58.5 314L56 319L53.5 321.5H50L46.5 320.5L43 316.5L42 314.5V312.5L44 307L46 301.5L47 297.5L49 292.5L52 285.5L54.5 277L56.5 271.5L58.5 267.5L61.5 260.5L64 255.5L66.5 250.5L68.5 246.5L69.5 244L70 241.5V239.5V233V227L87 224L103 228L104.5 235.5V234L103.5 236L103 238Z" stroke="black" stroke-width="0.5"/>
<path d="M73.5 232L70.25 235V232.973V232.5V225.984L84.5 225.5L104.5 229L103.5 235.5L103 238L101.5 240.5L99.5 244L91.5 234L82.5 236.5L73.5 232Z" fill="#573D39"/>
<path d="M52.5 236L40.5 240L46.5 233H46L40 240C40 240.4 34.6667 238.167 32 237L31 236L29.5 235V232L33.5 224H70L69.6446 234.307L64.1446 235.307L52.5 236Z" fill="#573D39"/>
<path d="M89 246L98 237L96.3636 243.6L89 246Z" fill="#4F3D34"/>
<path d="M19.5 184L23 178L97.5 179L99.5 180L104 194L108.5 201L110.5 209L114 214.5L122.5 232L124 240H112L110.5 242.5L99.5 232L87.5 227.5H71L53 226.5L42 227.5L39 229L29 236.5V241.5H17.5L13 242.5H7.5H4L1 235.5L2.5 231L7.5 221L9.5 216L11.5 211.5L13 207.5V198L14 194L16 190.5L19.5 184Z" fill="#132637" stroke="black" stroke-width="0.5"/>
<path d="M4.5 242.5L8.5 218.5L10 215.5L13.5 242.5H4.5Z" fill="#0B1519"/>
<path d="M34 203.5L30 204L27 202.5L36 199H45.5H55.5L70 202.5L84 200.5H96L103.5 205H93L85.5 207L82 205L72.5 207L66.5 210L64 208.5L54 204L42.5 202.5L34 203.5Z" fill="#0B1519"/>
<path d="M37 230.5L34 206L29 212.291V236.291L37 230.5Z" fill="#0B1519"/>
<path d="M29 236.5V212L34 206V178.5" stroke="black" stroke-width="0.5"/>
<path d="M42 228L41 178.5" stroke="black" stroke-width="0.5"/>
<path d="M53.5 226.5L51 178.5" stroke="black" stroke-width="0.5"/>
<path d="M72 227C72 222.5 72 213.2 72 212C72 210.5 67.5 206 67.5 203C67.5 200.6 66.1667 185.667 65.5 178.5" stroke="black" stroke-width="0.5"/>
<path d="M87.5 227.5C87.5 223.5 87.5 215.1 87.5 213.5C87.5 211.5 84.5 204.5 84.5 202.5C84.5 200.9 82.8333 186.167 82 179" stroke="black" stroke-width="0.5"/>
<path d="M100 232C101.667 222.167 104.7 202 103.5 200C102.3 198 96 185.167 93 179" stroke="black" stroke-width="0.5"/>
<path d="M18 241.5V213" stroke="black" stroke-width="0.5"/>
<path d="M18 204.5L27 178" stroke="black" stroke-width="0.5"/>
<path d="M16.5 309L19 306.5V312.5L26 315.5H34.5L36.5 312L34.5 320L29 335L26 330.5L23.5 326.5L19 327.5L15.5 330.5L10.5 336L12.5 326.5L14 320L15.5 314.5L16.5 309Z" fill="#1B191C" stroke="black" stroke-width="0.5"/>
<path d="M18 318L16 313V309.5L19.5 305.5L19 312L26 315.5H34L36.5 312.5V316.5L31.5 320H27.5L18 318Z" fill="#161817" stroke="black" stroke-width="0.5"/>
<path d="M5 355.5C5 353.5 8 348.667 9.5 346.5L27.5 349V362L21.5 366.5H15.5C14.3 366.9 9.33333 363 7 361C6.33333 360 5 357.5 5 355.5Z" fill="#231E1A" stroke="black" stroke-width="0.5"/>
<path d="M9 348.5L11 337V334L19 328L24 326.5L29 335.5L27 355.5L22 358.5H14L9 353.5V348.5Z" fill="#231C16" stroke="black" stroke-width="0.5"/>
<path d="M20 342L10 344.5L11 339L21.5 335.5L28 340.5L27 347L20 342Z" fill="#271E18" stroke="black" stroke-width="0.5"/>
<path d="M39.5 313.5L42 311V317L49 320H57.5L58 315.5L57.5 324.5L52 339.5L49 335L46.5 331L42 332L38.5 335L33.5 340.5L35.5 331L37 324.5L38.5 319L39.5 313.5Z" fill="#1B191C" stroke="black" stroke-width="0.5"/>
<path d="M41 322.5L39 317.5V314L42.5 310V316L49 320L56 319.5L58 316L59.5 321L54.5 324.5H50.5L41 322.5Z" fill="#161817" stroke="black" stroke-width="0.5"/>
<path d="M28 360C28 358 31 353.167 32.5 351L50.5 353.5V366.5L44.5 371H38.5C37.3 371.4 32.3333 367.5 30 365.5C29.3333 364.5 28 362 28 360Z" fill="#231E1A" stroke="black" stroke-width="0.5"/>
<path d="M32 353L34 341.5V338.5L42 332.5L47 331L52 340L50 360L45 363H37L32 358V353Z" fill="#231C16" stroke="black" stroke-width="0.5"/>
<path d="M43 346.5L33 349L34 343.5L44.5 340L51 345L50 351.5L43 346.5Z" fill="#271E18" stroke="black" stroke-width="0.5"/>
</svg>
