<svg width="1280" height="720" viewBox="0 0 1280 720" xmlns="http://www.w3.org/2000/svg">
<g clip-path="url(#clip0_75_83)">
<rect width="1280" height="720" fill="white"/>
<rect width="1280" height="720" fill="white"/>
<rect width="1280" height="315" fill="#54AAE5"/>
<rect width="369" height="82" rx="41" transform="matrix(-1 0 0 1 651 189)" fill="#FFF5F5"/>
<ellipse rx="58.5" ry="59" transform="matrix(-1 0 0 1 551.5 189)" fill="#FFF5F5"/>
<ellipse rx="58.5" ry="59" transform="matrix(-1 0 0 1 460.5 158)" fill="#FFF5F5"/>
<ellipse rx="58.5" ry="59" transform="matrix(-1 0 0 1 364.5 200)" fill="#FFF5F5"/>
<rect width="369" height="82" rx="41" transform="matrix(-1 0 0 1 1281 205)" fill="#FFF5F5"/>
<ellipse rx="58.5" ry="59" transform="matrix(-1 0 0 1 1181.5 205)" fill="#FFF5F5"/>
<ellipse rx="58.5" ry="59" transform="matrix(-1 0 0 1 1090.5 174)" fill="#FFF5F5"/>
<ellipse rx="58.5" ry="59" transform="matrix(-1 0 0 1 994.5 216)" fill="#FFF5F5"/>
<rect x="-38" y="178" width="369" height="82" rx="41" fill="#FFF5F5"/>
<ellipse cx="61.5" cy="178" rx="58.5" ry="59" fill="#FFF5F5"/>
<ellipse cx="152.5" cy="147" rx="58.5" ry="59" fill="#FFF5F5"/>
<ellipse cx="248.5" cy="189" rx="58.5" ry="59" fill="#FFF5F5"/>
<rect x="578" y="166" width="369" height="82" rx="41" fill="#FFF5F5"/>
<ellipse cx="677.5" cy="166" rx="58.5" ry="59" fill="#FFF5F5"/>
<ellipse cx="768.5" cy="135" rx="58.5" ry="59" fill="#FFF5F5"/>
<ellipse cx="864.5" cy="177" rx="58.5" ry="59" fill="#FFF5F5"/>
<rect x="81.1921" y="490.187" width="91.4706" height="208.313" fill="#7C7531" stroke="black"/>
<circle cx="56.3201" cy="445.243" r="89.8201" fill="#319755" stroke="black"/>
<circle cx="70.6567" cy="341.304" r="89.8201" fill="#319755" stroke="black"/>
<circle cx="171.012" cy="341.304" r="89.8201" fill="#319755" stroke="black"/>
<path d="M209.938 264.962C209.938 314.368 169.726 354.423 120.118 354.423C70.5094 354.423 30.2975 314.368 30.2975 264.962C30.2975 215.555 70.5094 175.5 120.118 175.5C169.726 175.5 209.938 215.555 209.938 264.962Z" fill="#319755" stroke="black"/>
<circle cx="198.969" cy="438.792" r="89.8201" fill="#319755" stroke="black"/>
<ellipse cx="123.5" cy="359" rx="118.5" ry="127" fill="#319755"/>
<rect x="396.192" y="528.187" width="91.4706" height="208.313" fill="#7C7531" stroke="black"/>
<circle cx="371.32" cy="483.243" r="89.8201" fill="#319755" stroke="black"/>
<circle cx="385.657" cy="379.304" r="89.8201" fill="#319755" stroke="black"/>
<circle cx="486.012" cy="379.304" r="89.8201" fill="#319755" stroke="black"/>
<path d="M524.938 302.962C524.938 352.368 484.726 392.423 435.118 392.423C385.509 392.423 345.297 352.368 345.297 302.962C345.297 253.555 385.509 213.5 435.118 213.5C484.726 213.5 524.938 253.555 524.938 302.962Z" fill="#319755" stroke="black"/>
<circle cx="513.969" cy="476.792" r="89.8201" fill="#319755" stroke="black"/>
<ellipse cx="438.5" cy="397" rx="118.5" ry="127" fill="#319755"/>
<rect x="242.192" y="450.187" width="91.4706" height="208.313" fill="#7C7531" stroke="black"/>
<circle cx="217.32" cy="405.243" r="89.8201" fill="#3F9D50" stroke="black"/>
<circle cx="231.657" cy="301.304" r="89.8201" fill="#3F9D50" stroke="black"/>
<circle cx="332.012" cy="301.304" r="89.8201" fill="#3F9D50" stroke="black"/>
<path d="M370.938 224.962C370.938 274.368 330.726 314.423 281.118 314.423C231.509 314.423 191.297 274.368 191.297 224.962C191.297 175.555 231.509 135.5 281.118 135.5C330.726 135.5 370.938 175.555 370.938 224.962Z" fill="#3F9D50" stroke="black"/>
<circle cx="359.969" cy="398.792" r="89.8201" fill="#3F9D50" stroke="black"/>
<ellipse cx="284.5" cy="319" rx="118.5" ry="127" fill="#3F9D50"/>
<rect x="588.192" y="523.187" width="91.4706" height="208.313" fill="#7C7531" stroke="black"/>
<circle cx="563.32" cy="478.243" r="89.8201" fill="#409B4E" stroke="black"/>
<circle cx="577.657" cy="374.304" r="89.8201" fill="#409B4E" stroke="black"/>
<circle cx="678.012" cy="374.304" r="89.8201" fill="#409B4E" stroke="black"/>
<path d="M716.938 297.962C716.938 347.368 676.726 387.423 627.118 387.423C577.509 387.423 537.297 347.368 537.297 297.962C537.297 248.555 577.509 208.5 627.118 208.5C676.726 208.5 716.938 248.555 716.938 297.962Z" fill="#409B4E" stroke="black"/>
<circle cx="705.969" cy="471.792" r="89.8201" fill="#409B4E" stroke="black"/>
<ellipse cx="630.5" cy="392" rx="118.5" ry="127" fill="#409B4E"/>
<rect x="806.192" y="438.187" width="91.4706" height="208.313" fill="#7C7531" stroke="black"/>
<circle cx="781.32" cy="393.243" r="89.8201" fill="#319755" stroke="black"/>
<circle cx="795.657" cy="289.304" r="89.8201" fill="#319755" stroke="black"/>
<circle cx="896.012" cy="289.304" r="89.8201" fill="#319755" stroke="black"/>
<path d="M934.938 212.962C934.938 262.368 894.726 302.423 845.118 302.423C795.509 302.423 755.297 262.368 755.297 212.962C755.297 163.555 795.509 123.5 845.118 123.5C894.726 123.5 934.938 163.555 934.938 212.962Z" fill="#319755" stroke="black"/>
<circle cx="923.969" cy="386.792" r="89.8201" fill="#319755" stroke="black"/>
<ellipse cx="848.5" cy="307" rx="118.5" ry="127" fill="#319755"/>
<rect x="1113.19" y="492.187" width="91.4706" height="208.313" fill="#7C7531" stroke="black"/>
<circle cx="1088.32" cy="447.243" r="89.8201" fill="#319755" stroke="black"/>
<circle cx="1102.66" cy="343.304" r="89.8201" fill="#319755" stroke="black"/>
<circle cx="1203.01" cy="343.304" r="89.8201" fill="#319755" stroke="black"/>
<path d="M1241.94 266.962C1241.94 316.368 1201.73 356.423 1152.12 356.423C1102.51 356.423 1062.3 316.368 1062.3 266.962C1062.3 217.555 1102.51 177.5 1152.12 177.5C1201.73 177.5 1241.94 217.555 1241.94 266.962Z" fill="#319755" stroke="black"/>
<circle cx="1230.97" cy="440.792" r="89.8201" fill="#319755" stroke="black"/>
<ellipse cx="1155.5" cy="361" rx="118.5" ry="127" fill="#319755"/>
<rect x="933.192" y="481.187" width="91.4706" height="208.313" fill="#7C7531" stroke="black"/>
<circle cx="908.32" cy="436.243" r="89.8201" fill="#35854E" stroke="black"/>
<circle cx="922.657" cy="332.304" r="89.8201" fill="#35854E" stroke="black"/>
<circle cx="1023.01" cy="332.304" r="89.8201" fill="#35854E" stroke="black"/>
<path d="M1061.94 255.962C1061.94 305.368 1021.73 345.423 972.118 345.423C922.51 345.423 882.298 305.368 882.298 255.962C882.298 206.555 922.51 166.5 972.118 166.5C1021.73 166.5 1061.94 206.555 1061.94 255.962Z" fill="#35854E" stroke="black"/>
<circle cx="1050.97" cy="429.792" r="89.8201" fill="#35854E" stroke="black"/>
<ellipse cx="975.5" cy="350" rx="118.5" ry="127" fill="#35854E"/>
<rect x="1.5" y="511.5" width="1279" height="102" fill="#292936" stroke="black"/>
<rect x="1.5" y="614.5" width="1279" height="21" fill="#5A491B" stroke="black"/>
<rect x="1.5" y="636.5" width="1279" height="32" fill="#BBACB1" stroke="black"/>
<rect x="1.5" y="669.5" width="1279" height="50" fill="#6A585D" stroke="black"/>
<rect x="1.5" y="246.5" width="1277" height="15" fill="#2C2A32" stroke="black"/>
<rect x="1.5" y="243.5" width="1277" height="2" fill="#BFC6C9" stroke="black"/>
<rect x="1.5" y="369.5" width="1277" height="15" fill="#2C2A32" stroke="black"/>
<rect x="1.5" y="366.5" width="1277" height="2" fill="#BFC6C9" stroke="black"/>
<rect x="1.5" y="475.5" width="1277" height="15" fill="#2C2A32" stroke="black"/>
<rect x="1.5" y="472.5" width="1277" height="2" fill="#BFC6C9" stroke="black"/>
<rect x="244.5" y="262.5" width="28" height="248" fill="#2B2D35" stroke="black"/>
<rect x="273.5" y="262.5" width="3" height="248" fill="#7D7D89" stroke="black"/>
<rect x="623.5" y="262.5" width="28" height="248" fill="#2B2D35" stroke="black"/>
<rect x="652.5" y="262.5" width="3" height="248" fill="#7D7D89" stroke="black"/>
<rect x="623.5" y="262.5" width="28" height="248" fill="#2B2D35" stroke="black"/>
<rect x="652.5" y="262.5" width="3" height="248" fill="#7D7D89" stroke="black"/>
<rect x="1014.5" y="262.5" width="28" height="248" fill="#2B2D35" stroke="black"/>
<rect x="1043.5" y="262.5" width="3" height="248" fill="#7D7D89" stroke="black"/>
<rect x="403.787" y="374.5" width="463.514" height="30.5902" fill="#1A1618" stroke="black"/>
<path d="M413.5 526.5L413.5 608.5L393.5 608.5L393.5 526.5L413.5 526.5Z" fill="#0F0F15" stroke="black"/>
<rect x="888.5" y="526.5" width="82" height="20" transform="rotate(90 888.5 526.5)" fill="#0F0F15" stroke="black"/>
<rect x="852.28" y="406.09" width="160.803" height="19.7991" transform="rotate(90 852.28 406.09)" fill="#0F0F15" stroke="black"/>
<rect x="443.23" y="406.09" width="160.803" height="19.7991" transform="rotate(90 443.23 406.09)" fill="#0F0F15" stroke="black"/>
<rect x="403.787" y="422.271" width="463.514" height="30.5902" fill="#1A1618" stroke="black"/>
<rect x="364.5" y="511.5" width="534" height="14" fill="#1A1618" stroke="black"/>
<path d="M365.16 510.5L397.29 476.5H867.442L897.881 510.5H365.16Z" fill="#443A3C" stroke="black"/>
<path d="M617.5 343.5L619.162 299.395L673.764 296.152L681.333 344.266L674.845 341.563L659.708 343.185H645.652H630.515L617.5 343.5Z" fill="#333432"/>
<path d="M617.5 343.5L619.162 299.395L673.764 296.152L681.333 344.266L674.845 341.563M617.5 343.5L630.515 343.185M617.5 343.5L626 335L628 311.815M630.515 343.185L634.3 301.558M630.515 343.185H645.652M645.652 343.185V301.558M645.652 343.185H659.708M659.708 343.185L658.086 301.558M659.708 343.185L674.845 341.563M674.845 341.563L664.5 339.5V301.558" stroke="black"/>
<path d="M636.462 332.373V325.885L637.003 323.182L655.383 323.723L655.924 328.048V332.373H658.086C658.447 332.913 659.276 333.994 659.708 333.994C660.249 333.994 659.708 336.157 659.708 336.697C659.708 337.13 651.419 354.177 647.274 362.647L645.652 363.187L637.543 350.213L632.678 337.238V334.535C632.678 333.238 635.561 332.553 636.462 332.373Z" fill="#8F8175" stroke="black"/>
<circle cx="646.734" cy="299.936" r="28.1523" fill="#8E847B" stroke="black"/>
<path d="M670.5 296H673L671.5 281L666 276V288L667 296H670.5Z" fill="#383935" stroke="black"/>
<path d="M624 295.5H621.5L622.5 282L628 277V289L627.5 295.5H624Z" fill="#383935" stroke="black"/>
<path d="M622.489 285.714L618.816 307.387C617.714 298.571 619.551 280.718 619.551 279.836C619.551 278.734 623.224 272.122 629.469 270.653C635.713 269.184 644.162 270.653 645.632 270.653C647.101 270.653 651.142 271.755 652.244 272.122C653.346 272.49 652.978 293.795 652.244 295.632C651.509 297.469 642.326 296.367 641.958 295.632C641.664 295.044 640.611 285.591 640.122 280.938C640.366 285.469 640.709 294.75 640.122 295.632C639.387 296.734 632.407 295.999 629.469 295.632C626.53 295.265 630.571 277.632 627.632 280.938C625.281 283.583 623.346 285.591 622.489 285.714Z" fill="#383935" stroke="black"/>
<path d="M671.713 285.714L675.714 307.672C676.816 298.856 673.549 281.82 673.549 280.938C673.549 279.836 671.306 272.408 665.061 270.939C658.817 269.469 650.368 270.939 648.899 270.939C647.429 270.939 647.468 270.571 646.366 270.939C645.264 271.306 640.856 293.428 641.591 295.265C642.326 297.101 652.205 296.652 652.572 295.918C652.866 295.33 653.919 285.877 654.409 281.224C654.164 285.755 653.821 295.036 654.409 295.918C655.143 297.02 662.123 296.285 665.061 295.918C668 295.55 663.959 277.918 666.898 281.224C669.249 283.869 670.856 285.591 671.713 285.714Z" fill="#383935" stroke="black"/>
<rect x="641.591" y="271.02" width="5.14272" height="22.0402" fill="#383935"/>
<path d="M689.5 349L690 352L691 356L693 362.5V367L694 373L695.5 377.5L697 382L697.5 384.5L698.5 386L699 389L701 393.5L700 395L691 398.5L682.5 401.5C682.515 401.32 682.53 401.132 682.546 400.937C682.373 401.745 682.186 402.314 682 402.5C681.2 403.3 680.333 408.5 680 411L677.5 419L678.5 437.5L679.5 448L605 447V436.5L606 431.5L608.5 414.5L609 411L606.656 398.5L605 399L597.5 395.5L583 388L585.5 383L586 379.5L588.5 374.5L590.5 372L593.5 367L594.5 362L596.5 358L597.5 355L598.5 350.5L606 346L686.5 347L689.5 349Z" fill="#8C8D8E"/>
<path d="M614.5 369L606 383V395L606.656 398.5M606.656 398.5L609 411L608.5 414.5L606 431.5L605 436.5V447L679.5 448L678.5 437.5L677.5 419L680 411C680.333 408.5 681.2 403.3 682 402.5C683 401.5 684 389.5 683 388.5C682.2 387.7 678 376.833 676 371.5C678.167 377.167 682.6 388.6 683 389C683.4 389.4 682.833 397.5 682.5 401.5L691 398.5L700 395L701 393.5L699 389L698.5 386L697.5 384.5L697 382L695.5 377.5L694 373L693 367V362.5L691 356L690 352L689.5 349L686.5 347L606 346L598.5 350.5L597.5 355L596.5 358L594.5 362L593.5 367L590.5 372L588.5 374.5L586 379.5L585.5 383L583 388L597.5 395.5L605 399L606.656 398.5Z" stroke="black" stroke-width="0.5"/>
<path d="M673 379.5L659 379V382L662.5 383H676L675.5 380.5L673 379.5Z" fill="#818082" stroke="black"/>
<path d="M606 383.5L601 369" stroke="black" stroke-width="0.5"/>
<path d="M609.5 377.5C607.5 371.5 609 367.667 610 366.5" stroke="black" stroke-width="0.5"/>
<path d="M678.5 377.5L680 368" stroke="black" stroke-width="0.5"/>
<path d="M687 375L682.5 387L688.5 385" stroke="black" stroke-width="0.5"/>
<path d="M614 393L607 399.5L608.5 407L609 411L608 418L607 421.5H610L619 416.5L621 415L624.5 414L642 441L660 426.625L677.5 438V418.5L680 411L681.5 403L679.5 400.5L676 397.5L672 394L667.5 391.5L657 394.5L649.5 400.5L644 402.5L634 398.5L619.5 390L614 393Z" fill="#646568"/>
<path d="M642.221 371.5C642.054 371 641.621 370 641.221 370C640.821 370 641.054 366.667 641.221 365H651.221C651.621 365 653.054 366.667 653.721 367.5C653.887 367.5 654.121 367.7 653.721 368.5C653.321 369.3 651.887 370.833 651.221 371.5H642.221Z" fill="#898C8C"/>
<path d="M641.221 365C641.221 365 641.221 365 641.221 365ZM641.221 365C641.054 366.667 640.821 370 641.221 370C641.621 370 642.054 371 642.221 371.5H651.221C651.887 370.833 653.321 369.3 653.721 368.5C654.121 367.7 653.887 367.5 653.721 367.5C653.054 366.667 651.621 365 651.221 365C650.821 365 644.388 365 641.221 365Z" stroke="black"/>
<path d="M643 374.5V372H650.5L652 381.5L653 388L651.5 395L650 407L644 430.5L638.5 403.5V398L638 393.5V389.5L638.5 386.5C638.667 385.5 639.1 383.1 639.5 381.5C639.9 379.9 642 376.167 643 374.5Z" fill="#385369"/>
<path d="M644 430.5L638.5 403.5V398L638 393.5V389.5L638.5 386.5C638.667 385.5 639.1 383.1 639.5 381.5C639.9 379.9 642 376.167 643 374.5V372H650.5L652 381.5L653 388L651.5 395L650 407L644 430.5ZM644 430.5L648.5 436.5" stroke="black"/>
<path d="M644 386.5C644.4 385.3 645.833 376.667 646.5 372.5H648C648.333 376.667 649 385.3 649 386.5C649 387.7 645.667 394.333 644 397.5C643.833 394.333 643.6 387.7 644 386.5Z" fill="#1A2C3D" stroke="black"/>
<path d="M658 330L656 329V332.5L657.5 333.5V335V337.5L656 342L653.5 347.5L650.5 353.5L646.5 360L645 362V365H651H660.5L666.5 364L668 363L672 359L676 355C676.833 353.833 678.7 351.2 679.5 350C680.3 348.8 686.5 348.5 689.5 348.5L690 347.5C689.5 347 688.3 346 687.5 346C686.7 346 673.833 339 667.5 335.5L658 330Z" fill="#182C3B" stroke="black"/>
<path d="M679.5 350L645.5 364.5H645V362L645.5 361L683.5 344L685 345L687.5 346L689.5 347L690 347.5L689.5 348.5H687C685.667 348.667 682.9 349 682.5 349C682.1 349 680.667 349.333 680 349.5L679.5 350Z" fill="#41545E" stroke="black" stroke-width="0.5"/>
<path d="M678.5 350.5L645.5 364.5V365H660.5L667 363.5L673 358L676.5 354.5C677.167 353.5 678.6 351.4 679 351C679.4 350.6 678.833 350.5 678.5 350.5Z" fill="#3F576A" stroke="black" stroke-width="0.5"/>
<path d="M634 330L636.5 329V332.5V333L634.5 333.5V335V337.5L636 342L638.5 347.5L641.5 353.5L645.5 360L647 362V365H641H631.5L625.5 364L624 363L620 359L616 355C615.167 353.833 613.3 351.2 612.5 350C611.7 348.8 605.5 348.5 602.5 348.5L602 347.5C602.5 347 603.7 346 604.5 346C605.3 346 618.167 339 624.5 335.5L634 330Z" fill="#182C3B" stroke="black"/>
<path d="M612.5 350L646.5 364.5H647V362L646.5 361L608.5 344L607 345L604.5 346L602.5 347L602 347.5L602.5 348.5H605C606.333 348.667 609.1 349 609.5 349C609.9 349 611.333 349.333 612 349.5L612.5 350Z" fill="#41545E" stroke="black" stroke-width="0.5"/>
<path d="M613.5 350.5L646.5 364.5V365H631.5L625 363.5L619 358L615.5 354.5C614.833 353.5 613.4 351.4 613 351C612.6 350.6 613.167 350.5 613.5 350.5Z" fill="#3F576A" stroke="black" stroke-width="0.5"/>
<rect x="642.25" y="417.75" width="4.5" height="19.5" fill="#71655B" stroke="black" stroke-width="0.5"/>
<path d="M654.5 414C654.1 413.6 649 416 646.5 417.5V437L654.5 433L666.5 431L671 413H660L654.5 414Z" fill="#847566" stroke="black" stroke-width="0.5"/>
<path d="M634.5 413.5C634.9 413.1 640 416.5 642.5 418V437L634.5 432.5L622.5 430.5L618 412.5H629L634.5 413.5Z" fill="#847566" stroke="black" stroke-width="0.5"/>
<path d="M644.5 416.5V417.5L646.5 418L650 416.5L661 413L670.5 412.5L668 410H660.5L653.5 412C652.7 412 648.167 415 646 416.5H644.5Z" fill="#79787B" stroke="black" stroke-width="0.5"/>
<path d="M644 416.5V417.5L642 418L638.5 416.5L627.5 413L618 412.5L620.5 410H628L635 412C635.8 412 640.333 415 642.5 416.5H644Z" fill="#79787B" stroke="black" stroke-width="0.5"/>
<rect x="603.661" y="431.13" width="11.9929" height="29.5426" rx="5.99647" transform="rotate(-102.351 603.661 431.13)" fill="#8D7E70" stroke="black"/>
<path d="M588 397.5L590 392L605 399C604.833 401.833 604.6 407.6 605 408C605.4 408.4 603.167 413.334 602 415.751C603.875 416.709 605.695 417.729 607 418.5V430L601.5 429.5H590L584 428.5C583.667 428 583 426.6 583 425C583 423.4 584.667 420 585.5 418.5L586.5 409.5L588 397.5Z" fill="#8D7E70"/>
<path d="M594 413C592.4 413.8 589 415.667 587.5 416.5L594 413ZM594 413C595.031 412.485 598.606 414.016 602 415.751M602 415.751C603.875 416.709 605.695 417.729 607 418.5V430L601.5 429.5H590L584 428.5C583.667 428 583 426.6 583 425C583 423.4 584.667 420 585.5 418.5L586.5 409.5L588 397.5L590 392L605 399C604.833 401.833 604.6 407.6 605 408C605.4 408.4 603.167 413.334 602 415.751Z" stroke="black"/>
<rect x="601.547" y="429.169" width="11.2374" height="10.5707" rx="5.28537" transform="rotate(-87.4342 601.547 429.169)" fill="#8D7E70"/>
<rect x="-0.38148" y="-0.595376" width="11.9929" height="29.5426" rx="5.99647" transform="matrix(0.213896 -0.976856 -0.976856 -0.213896 682.954 434.63)" fill="#8D7E70" stroke="black"/>
<path d="M699.115 401.5L697 396.5L683 401.5C683.167 404.333 682.515 411.6 682.115 412C681.715 412.4 683.948 417.334 685.115 419.751C683.24 420.709 681.42 421.729 680.115 422.5V434L685.615 433.5H697.115L703.115 432.5C703.448 432 704.115 430.6 704.115 429C704.115 427.4 702.448 424 701.615 422.5L700.615 413.5L699.115 401.5Z" fill="#8D7E70"/>
<path d="M693.115 417C694.715 417.8 698.115 419.667 699.615 420.5L693.115 417ZM693.115 417C692.084 416.485 688.509 418.016 685.115 419.751M685.115 419.751C683.24 420.709 681.42 421.729 680.115 422.5V434L685.615 433.5H697.115L703.115 432.5C703.448 432 704.115 430.6 704.115 429C704.115 427.4 702.448 424 701.615 422.5L700.615 413.5L699.115 401.5L697 396.5L683 401.5C683.167 404.333 682.515 411.6 682.115 412C681.715 412.4 683.948 417.334 685.115 419.751Z" stroke="black"/>
<rect width="11.2374" height="10.5707" rx="5.28537" transform="matrix(-0.0447673 -0.998997 -0.998997 0.0447673 685.568 433.169)" fill="#8D7E70"/>
<path d="M621.704 509C620.904 509 616.037 507 613.704 506L605.704 499L619.204 493.5L653.204 493V499V506V510.5L650.704 516L649.204 519.5L646.204 525.5L642.704 531.5L635.704 544.5L628.704 560L618.204 581L616.204 584.5L613.704 585C613.304 585.8 608.204 585.333 605.704 585L602.704 582.5C600.704 582.5 600.87 578.833 601.204 577L605.204 563L610.204 544.5L615.704 525.5L620.704 512.5L622.704 508.5L623.757 507.271C622.79 508.29 622.005 509 621.704 509Z" fill="#796B60"/>
<path d="M613.704 506C616.037 507 620.904 509 621.704 509C622.504 509 626.704 504 628.704 501.5L622.704 508.5L620.704 512.5L615.704 525.5L610.204 544.5L605.204 563L601.204 577C600.87 578.833 600.704 582.5 602.704 582.5L605.704 585C608.204 585.333 613.304 585.8 613.704 585L616.204 584.5L618.204 581L628.704 560L635.704 544.5L642.704 531.5L646.204 525.5L649.204 519.5L650.704 516L653.204 510.5V506V499V493L619.204 493.5L605.704 499L613.704 506Z" stroke="black" stroke-width="0.5"/>
<path d="M685 507L680.5 515.5L679 518.5C676.833 523.833 672.3 534.8 671.5 536C670.7 537.2 667.833 542.167 666.5 544.5L663 551L657 560L651.5 568L646 574.5L640.5 583L638 588L635.5 590.5H632L628.5 589.5L625 585.5L624 583.5V581.5L626 576L628 570.5L629 566.5L631 561.5L634 554.5L636.5 546L638.5 540.5L640.5 536.5L643.5 529.5L646 524.5L648.5 519.5L650.5 515.5L651.5 513L652 510.5V508.5V502V496L669 493L685 497L686.286 503.429L686.5 503V504.5L686.286 503.429L685.5 505L685 507Z" fill="#7B6E60"/>
<path d="M685 507L680.5 515.5L679 518.5C676.833 523.833 672.3 534.8 671.5 536C670.7 537.2 667.833 542.167 666.5 544.5L663 551L657 560L651.5 568L646 574.5L640.5 583L638 588L635.5 590.5H632L628.5 589.5L625 585.5L624 583.5V581.5L626 576L628 570.5L629 566.5L631 561.5L634 554.5L636.5 546L638.5 540.5L640.5 536.5L643.5 529.5L646 524.5L648.5 519.5L650.5 515.5L651.5 513L652 510.5V508.5V502V496L669 493L685 497L686.5 504.5V503L685.5 505L685 507Z" stroke="black" stroke-width="0.5"/>
<path d="M655.5 501L652.25 504V501.973V501.5V494.984L666.5 494.5L686.5 498L685.5 504.5L685 507L683.5 509.5L681.5 513L673.5 503L664.5 505.5L655.5 501Z" fill="#573D39"/>
<path d="M634.5 505L622.5 509L628.5 502H628L622 509C622 509.4 616.667 507.167 614 506L613 505L611.5 504V501L615.5 493H652L651.645 503.307L646.145 504.307L634.5 505Z" fill="#573D39"/>
<path d="M671 515L680 506L678.364 512.6L671 515Z" fill="#4F3D34"/>
<path d="M601.5 453L605 447L679.5 448L681.5 449L686 463L690.5 470L692.5 478L696 483.5L704.5 501L706 509H694L692.5 511.5L681.5 501L669.5 496.5H653L635 495.5L624 496.5L621 498L611 505.5V510.5H599.5L595 511.5H589.5H586L583 504.5L584.5 500L589.5 490L591.5 485L593.5 480.5L595 476.5V467L596 463L598 459.5L601.5 453Z" fill="#132637" stroke="black" stroke-width="0.5"/>
<path d="M586.5 511.5L590.5 487.5L592 484.5L595.5 511.5H586.5Z" fill="#0B1519"/>
<path d="M616 472.5L612 473L609 471.5L618 468H627.5H637.5L652 471.5L666 469.5H678L685.5 474H675L667.5 476L664 474L654.5 476L648.5 479L646 477.5L636 473L624.5 471.5L616 472.5Z" fill="#0B1519"/>
<path d="M619 499.5L616 475L611 481.291V505.291L619 499.5Z" fill="#0B1519"/>
<path d="M611 505.5V481L616 475V447.5" stroke="black" stroke-width="0.5"/>
<path d="M624 497L623 447.5" stroke="black" stroke-width="0.5"/>
<path d="M635.5 495.5L633 447.5" stroke="black" stroke-width="0.5"/>
<path d="M654 496C654 491.5 654 482.2 654 481C654 479.5 649.5 475 649.5 472C649.5 469.6 648.167 454.667 647.5 447.5" stroke="black" stroke-width="0.5"/>
<path d="M669.5 496.5C669.5 492.5 669.5 484.1 669.5 482.5C669.5 480.5 666.5 473.5 666.5 471.5C666.5 469.9 664.833 455.167 664 448" stroke="black" stroke-width="0.5"/>
<path d="M682 501C683.667 491.167 686.7 471 685.5 469C684.3 467 678 454.167 675 448" stroke="black" stroke-width="0.5"/>
<path d="M600 510.5V482" stroke="black" stroke-width="0.5"/>
<path d="M600 473.5L609 447" stroke="black" stroke-width="0.5"/>
<path d="M598.5 578L601 575.5V581.5L608 584.5H616.5L618.5 581L616.5 589L611 604L608 599.5L605.5 595.5L601 596.5L597.5 599.5L592.5 605L594.5 595.5L596 589L597.5 583.5L598.5 578Z" fill="#1B191C" stroke="black" stroke-width="0.5"/>
<path d="M600 587L598 582V578.5L601.5 574.5L601 581L608 584.5H616L618.5 581.5V585.5L613.5 589H609.5L600 587Z" fill="#161817" stroke="black" stroke-width="0.5"/>
<path d="M587 624.5C587 622.5 590 617.667 591.5 615.5L609.5 618V631L603.5 635.5H597.5C596.3 635.9 591.333 632 589 630C588.333 629 587 626.5 587 624.5Z" fill="#231E1A" stroke="black" stroke-width="0.5"/>
<path d="M591 617.5L593 606V603L601 597L606 595.5L611 604.5L609 624.5L604 627.5H596L591 622.5V617.5Z" fill="#231C16" stroke="black" stroke-width="0.5"/>
<path d="M602 611L592 613.5L593 608L603.5 604.5L610 609.5L609 616L602 611Z" fill="#271E18" stroke="black" stroke-width="0.5"/>
<path d="M621.5 582.5L624 580V586L631 589H639.5L640 584.5L639.5 593.5L634 608.5L631 604L628.5 600L624 601L620.5 604L615.5 609.5L617.5 600L619 593.5L620.5 588L621.5 582.5Z" fill="#1B191C" stroke="black" stroke-width="0.5"/>
<path d="M623 591.5L621 586.5V583L624.5 579V585L631 589L638 588.5L640 585L641.5 590L636.5 593.5H632.5L623 591.5Z" fill="#161817" stroke="black" stroke-width="0.5"/>
<path d="M610 629C610 627 613 622.167 614.5 620L632.5 622.5V635.5L626.5 640H620.5C619.3 640.4 614.333 636.5 612 634.5C611.333 633.5 610 631 610 629Z" fill="#231E1A" stroke="black" stroke-width="0.5"/>
<path d="M614 622L616 610.5V607.5L624 601.5L629 600L634 609L632 629L627 632H619L614 627V622Z" fill="#231C16" stroke="black" stroke-width="0.5"/>
<path d="M625 615.5L615 618L616 612.5L626.5 609L633 614L632 620.5L625 615.5Z" fill="#271E18" stroke="black" stroke-width="0.5"/>
</g>
<defs>
<clipPath id="clip0_75_83">
<rect width="1280" height="720" fill="white"/>
</clipPath>
</defs>
</svg>
